<svg width="192" height="32" viewBox="0 0 192 32" fill="none" xmlns="http://www.w3.org/2000/svg">
<rect width="32" height="32" rx="16" fill="#011E00"/>
<rect x="0.5" y="0.5" width="31" height="31" rx="15.5" stroke="white" stroke-opacity="0.25"/>
<path d="M18.0796 11.5468H19.3329V9.42685C18.7261 9.36375 18.1164 9.33259 17.5063 9.33352C15.6929 9.33352 14.4529 10.4402 14.4529 12.4668V14.2135H12.4062V16.5868H14.4529V22.6669H16.9062V16.5868H18.9462L19.2529 14.2135H16.9062V12.7002C16.9062 12.0002 17.0929 11.5468 18.0796 11.5468Z" fill="white"/>
<rect x="40" width="32" height="32" rx="16" fill="#011E00"/>
<rect x="40.5" y="0.5" width="31" height="31" rx="15.5" stroke="white" stroke-opacity="0.25"/>
<path d="M56.6667 22H54V14H56.6667V15.3333C56.9474 14.9762 57.3037 14.6856 57.71 14.4824C58.1163 14.2792 58.5625 14.1684 59.0167 14.158C59.8109 14.1624 60.571 14.4816 61.1303 15.0456C61.6895 15.6096 62.0023 16.3724 62 17.1667V22H59.3333V17.5C59.2818 17.1397 59.1018 16.8102 58.8265 16.5721C58.5513 16.3339 58.1993 16.2032 57.8353 16.204C57.6724 16.2091 57.5123 16.2472 57.3644 16.3157C57.2166 16.3843 57.0841 16.482 56.975 16.6031C56.8658 16.7241 56.7822 16.866 56.7293 17.0201C56.6763 17.1742 56.655 17.3374 56.6667 17.5V22ZM52.6667 22H50V14H52.6667V22ZM51.3333 12.6667C50.9797 12.6667 50.6406 12.5262 50.3905 12.2761C50.1405 12.0261 50 11.687 50 11.3333C50 10.9797 50.1405 10.6406 50.3905 10.3905C50.6406 10.1405 50.9797 10 51.3333 10C51.687 10 52.0261 10.1405 52.2761 10.3905C52.5262 10.6406 52.6667 10.9797 52.6667 11.3333C52.6667 11.687 52.5262 12.0261 52.2761 12.2761C52.0261 12.5262 51.687 12.6667 51.3333 12.6667Z" fill="white"/>
<rect x="80" width="32" height="32" rx="16" fill="#011E00"/>
<rect x="80.5" y="0.5" width="31" height="31" rx="15.5" stroke="white" stroke-opacity="0.25"/>
<path d="M102.973 11.9998C102.46 12.2332 101.906 12.3865 101.333 12.4598C101.92 12.1065 102.373 11.5465 102.586 10.8732C102.033 11.2065 101.42 11.4398 100.773 11.5732C100.246 10.9998 99.5064 10.6665 98.6664 10.6665C97.0997 10.6665 95.8197 11.9465 95.8197 13.5265C95.8197 13.7532 95.8464 13.9732 95.893 14.1798C93.5197 14.0598 91.4064 12.9198 89.9997 11.1932C89.753 11.6132 89.613 12.1065 89.613 12.6265C89.613 13.6198 90.113 14.4998 90.8864 14.9998C90.413 14.9998 89.973 14.8665 89.5864 14.6665V14.6865C89.5864 16.0732 90.573 17.2332 91.8797 17.4932C91.4602 17.608 91.0198 17.624 90.593 17.5398C90.7741 18.1082 91.1287 18.6054 91.607 18.9618C92.0854 19.3181 92.6633 19.5156 93.2597 19.5265C92.2488 20.3268 90.9957 20.7594 89.7064 20.7532C89.4797 20.7532 89.253 20.7398 89.0264 20.7132C90.293 21.5265 91.7997 21.9998 93.413 21.9998C98.6664 21.9998 101.553 17.6398 101.553 13.8598C101.553 13.7332 101.553 13.6132 101.546 13.4865C102.106 13.0865 102.586 12.5798 102.973 11.9998Z" fill="white"/>
<rect x="120" width="32" height="32" rx="16" fill="#011E00"/>
<rect x="120.5" y="0.5" width="31" height="31" rx="15.5" stroke="white" stroke-opacity="0.25"/>
<path d="M138 16C138 16.3956 137.883 16.7822 137.663 17.1111C137.443 17.44 137.131 17.6964 136.765 17.8478C136.4 17.9991 135.998 18.0387 135.61 17.9616C135.222 17.8844 134.865 17.6939 134.586 17.4142C134.306 17.1345 134.116 16.7781 134.038 16.3902C133.961 16.0022 134.001 15.6001 134.152 15.2346C134.304 14.8692 134.56 14.5568 134.889 14.3371C135.218 14.1173 135.604 14 136 14C136.53 14.0016 137.038 14.2129 137.412 14.5876C137.787 14.9623 137.998 15.4701 138 16ZM142.25 13.25V18.75C142.25 19.6783 141.881 20.5685 141.225 21.2249C140.568 21.8813 139.678 22.25 138.75 22.25H133.25C132.322 22.25 131.432 21.8813 130.775 21.2249C130.119 20.5685 129.75 19.6783 129.75 18.75V13.25C129.75 12.3217 130.119 11.4315 130.775 10.7751C131.432 10.1187 132.322 9.75 133.25 9.75H138.75C139.678 9.75 140.568 10.1187 141.225 10.7751C141.881 11.4315 142.25 12.3217 142.25 13.25ZM139 16C139 15.4067 138.824 14.8266 138.494 14.3333C138.165 13.8399 137.696 13.4554 137.148 13.2284C136.6 13.0013 135.997 12.9419 135.415 13.0576C134.833 13.1734 134.298 13.4591 133.879 13.8787C133.459 14.2982 133.173 14.8328 133.058 15.4147C132.942 15.9967 133.001 16.5999 133.228 17.1481C133.455 17.6962 133.84 18.1648 134.333 18.4944C134.827 18.8241 135.407 19 136 19C136.796 19 137.559 18.6839 138.121 18.1213C138.684 17.5587 139 16.7956 139 16ZM140 12.75C140 12.6017 139.956 12.4567 139.874 12.3333C139.791 12.21 139.674 12.1139 139.537 12.0571C139.4 12.0003 139.249 11.9855 139.104 12.0144C138.958 12.0433 138.825 12.1148 138.72 12.2197C138.615 12.3246 138.543 12.4582 138.514 12.6037C138.485 12.7492 138.5 12.9 138.557 13.037C138.614 13.1741 138.71 13.2912 138.833 13.3736C138.957 13.456 139.102 13.5 139.25 13.5C139.449 13.5 139.64 13.421 139.78 13.2803C139.921 13.1397 140 12.9489 140 12.75Z" fill="white"/>
<rect x="160" width="32" height="32" rx="16" fill="#011E00"/>
<rect x="160.5" y="0.5" width="31" height="31" rx="15.5" stroke="white" stroke-opacity="0.25"/>
<g clip-path="url(#clip0_323_355)">
<path d="M176.051 9.99902H176.14C176.962 10.002 181.127 10.032 182.25 10.334C182.589 10.4262 182.899 10.6058 183.147 10.855C183.395 11.1042 183.574 11.4142 183.665 11.754C183.766 12.134 183.837 12.637 183.885 13.156L183.895 13.26L183.917 13.52L183.925 13.624C183.99 14.538 183.998 15.394 183.999 15.581V15.656C183.998 15.85 183.989 16.764 183.917 17.716L183.909 17.821L183.9 17.925C183.85 18.497 183.776 19.065 183.665 19.483C183.574 19.823 183.396 20.1331 183.147 20.3823C182.899 20.6316 182.59 20.8111 182.25 20.903C181.09 21.215 176.681 21.237 176.07 21.238H175.928C175.619 21.238 174.341 21.232 173.001 21.186L172.831 21.18L172.744 21.176L172.573 21.169L172.402 21.162C171.292 21.113 170.235 21.034 169.748 20.902C169.408 20.8102 169.099 20.6308 168.851 20.3818C168.602 20.1327 168.424 19.8228 168.333 19.483C168.222 19.066 168.148 18.497 168.098 17.925L168.09 17.82L168.082 17.716C168.033 17.0384 168.005 16.3594 168 15.68V15.557C168.002 15.342 168.01 14.599 168.064 13.779L168.071 13.676L168.074 13.624L168.082 13.52L168.104 13.26L168.114 13.156C168.162 12.637 168.233 12.133 168.334 11.754C168.425 11.4141 168.603 11.1039 168.852 10.8547C169.1 10.6055 169.409 10.4259 169.749 10.334C170.236 10.204 171.293 10.124 172.403 10.074L172.573 10.067L172.745 10.061L172.831 10.058L173.002 10.051C173.954 10.0204 174.906 10.0034 175.858 10H176.051V9.99902ZM174.4 13.209V18.027L178.557 15.619L174.4 13.209Z" fill="white"/>
</g>
<defs>
<clipPath id="clip0_323_355">
<rect width="16" height="16" fill="white" transform="translate(168 8)"/>
</clipPath>
</defs>
</svg>
