<svg width="72" height="32" viewBox="0 0 72 32" fill="none" xmlns="http://www.w3.org/2000/svg">
<rect width="32" height="32" rx="16" fill="#011E00"/>
<rect x="0.5" y="0.5" width="31" height="31" rx="15.5" stroke="white" stroke-opacity="0.25"/>
<path d="M19.3671 21.52C18.7138 22.1533 18.0004 22.0533 17.3138 21.7533C16.5871 21.4467 15.9204 21.4333 15.1538 21.7533C14.1938 22.1667 13.6871 22.0467 13.1138 21.52C9.86043 18.1667 10.3404 13.06 14.0338 12.8733C14.9338 12.92 15.5604 13.3667 16.0871 13.4067C16.8738 13.2467 17.6271 12.7867 18.4671 12.8467C19.4738 12.9267 20.2338 13.3267 20.7338 14.0467C18.6538 15.2933 19.1471 18.0333 21.0538 18.8C20.6738 19.8 20.1804 20.7933 19.3604 21.5267L19.3671 21.52ZM16.0204 12.8333C15.9204 11.3467 17.1271 10.12 18.5138 10C18.7071 11.72 16.9538 13 16.0204 12.8333Z" fill="white"/>
<rect x="40" width="32" height="32" rx="16" fill="#011E00"/>
<rect x="40.5" y="0.5" width="31" height="31" rx="15.5" stroke="white" stroke-opacity="0.25"/>
<path d="M57.9831 10.0128L58.6231 8.85818C58.6313 8.84339 58.6365 8.82712 58.6384 8.81032C58.6403 8.79352 58.6388 8.77651 58.6342 8.76026C58.6295 8.74401 58.6217 8.72884 58.6111 8.71561C58.6006 8.70239 58.5876 8.69137 58.5728 8.68318C58.558 8.675 58.5417 8.6698 58.5249 8.6679C58.5081 8.666 58.4911 8.66743 58.4748 8.6721C58.4586 8.67678 58.4434 8.68461 58.4302 8.69514C58.417 8.70568 58.4059 8.71872 58.3978 8.73351L57.7511 9.90018C57.1991 9.65815 56.6028 9.53319 56.0001 9.53319C55.3973 9.53319 54.8011 9.65815 54.2491 9.90018L53.6024 8.73351C53.5859 8.70346 53.5581 8.6812 53.5252 8.67163C53.4922 8.66207 53.4568 8.66598 53.4268 8.68251C53.3967 8.69905 53.3744 8.72684 53.3649 8.75979C53.3553 8.79273 53.3592 8.82812 53.3758 8.85818L54.0158 10.0128C53.4068 10.3132 52.8923 10.7754 52.5287 11.3488C52.1651 11.9222 51.9664 12.5846 51.9544 13.2635H60.0458C60.0336 12.5845 59.8347 11.922 59.4709 11.3485C59.107 10.7751 58.5923 10.313 57.9831 10.0128ZM54.1331 11.7828C54.0662 11.7828 54.0008 11.763 53.9452 11.7258C53.8896 11.6887 53.8463 11.6358 53.8208 11.574C53.7952 11.5122 53.7885 11.4442 53.8016 11.3787C53.8147 11.3131 53.847 11.2529 53.8943 11.2056C53.9417 11.1584 54.002 11.1262 54.0676 11.1133C54.1332 11.1003 54.2012 11.1071 54.2629 11.1328C54.3247 11.1585 54.3774 11.2019 54.4145 11.2576C54.4515 11.3132 54.4712 11.3786 54.4711 11.4455C54.4709 11.535 54.4352 11.6208 54.3719 11.6841C54.3085 11.7473 54.2226 11.7828 54.1331 11.7828ZM57.8678 11.7828C57.8009 11.7828 57.7355 11.763 57.6799 11.7258C57.6243 11.6887 57.581 11.6358 57.5554 11.574C57.5299 11.5122 57.5232 11.4442 57.5363 11.3787C57.5494 11.3131 57.5817 11.2529 57.629 11.2056C57.6763 11.1584 57.7366 11.1262 57.8022 11.1133C57.8678 11.1003 57.9358 11.1071 57.9976 11.1328C58.0593 11.1585 58.1121 11.2019 58.1491 11.2576C58.1862 11.3132 58.2059 11.3786 58.2058 11.4455C58.2056 11.535 58.1699 11.6208 58.1065 11.6841C58.0432 11.7473 57.9573 11.7828 57.8678 11.7828ZM51.9531 19.4475C51.9529 19.5762 51.9781 19.7037 52.0273 19.8227C52.0765 19.9416 52.1487 20.0497 52.2398 20.1406C52.3308 20.2316 52.4389 20.3037 52.5579 20.3528C52.6769 20.402 52.8044 20.4271 52.9331 20.4268H53.5818V22.4268C53.5818 22.6674 53.6773 22.8981 53.8474 23.0682C54.0175 23.2383 54.2482 23.3338 54.4888 23.3338C54.7293 23.3338 54.96 23.2383 55.1301 23.0682C55.3002 22.8981 55.3958 22.6674 55.3958 22.4268V20.4268H56.6051V22.4268C56.6051 22.6673 56.7006 22.8979 56.8706 23.068C57.0407 23.238 57.2713 23.3335 57.5118 23.3335C57.7522 23.3335 57.9828 23.238 58.1529 23.068C58.3229 22.8979 58.4184 22.6673 58.4184 22.4268V20.4268H59.0678C59.1963 20.4269 59.3236 20.4017 59.4424 20.3525C59.5612 20.3034 59.6691 20.2313 59.76 20.1404C59.8509 20.0495 59.923 19.9416 59.9721 19.8228C60.0213 19.704 60.0465 19.5767 60.0464 19.4482V13.5835H51.9531V19.4475ZM50.7084 13.4275C50.468 13.4279 50.2374 13.5236 50.0675 13.6937C49.8975 13.8638 49.8019 14.0944 49.8018 14.3348V18.1142C49.8018 18.2332 49.8252 18.3511 49.8708 18.4611C49.9163 18.5711 49.9831 18.6711 50.0673 18.7553C50.1515 18.8395 50.2515 18.9063 50.3615 18.9518C50.4715 18.9974 50.5894 19.0208 50.7084 19.0208C50.8275 19.0208 50.9454 18.9974 51.0554 18.9518C51.1654 18.9063 51.2653 18.8395 51.3495 18.7553C51.4337 18.6711 51.5005 18.5711 51.5461 18.4611C51.5916 18.3511 51.6151 18.2332 51.6151 18.1142V14.3348C51.6147 14.0945 51.5191 13.8641 51.3491 13.6941C51.1792 13.5242 50.9488 13.4285 50.7084 13.4282V13.4275ZM61.2898 13.4275C61.0493 13.4279 60.8188 13.5236 60.6488 13.6937C60.4788 13.8638 60.3833 14.0944 60.3831 14.3348V18.1142C60.3831 18.2332 60.4065 18.3511 60.4521 18.4611C60.4977 18.5711 60.5645 18.6711 60.6486 18.7553C60.7328 18.8395 60.8328 18.9063 60.9428 18.9518C61.0528 18.9974 61.1707 19.0208 61.2898 19.0208C61.4088 19.0208 61.5267 18.9974 61.6367 18.9518C61.7467 18.9063 61.8467 18.8395 61.9309 18.7553C62.0151 18.6711 62.0818 18.5711 62.1274 18.4611C62.173 18.3511 62.1964 18.2332 62.1964 18.1142V14.3348C62.1961 14.0945 62.1004 13.8641 61.9305 13.6941C61.7605 13.5242 61.5301 13.4285 61.2898 13.4282V13.4275Z" fill="white"/>
</svg>
