<svg width="16" height="17" viewBox="0 0 16 17" fill="none" xmlns="http://www.w3.org/2000/svg">
<rect width="16" height="17" fill="#1E1E1E"/>
<g id="Upwork Homepage (Community)">
<g id="Hero Image">
<rect width="1440" height="672" transform="translate(-895 -33)" fill="white"/>
<g id="Topnavbar">
<mask id="path-1-inside-1_0_1" fill="white">
<path d="M-895 -33H545V50H-895V-33Z"/>
</mask>
<path d="M-895 -33H545V50H-895V-33Z" fill="white"/>
<path d="M545 49H-895V51H545V49Z" fill="#EFF2EF" mask="url(#path-1-inside-1_0_1)"/>
<g id="Frame 4">
<g id="Advance search">
<rect x="-15.5" y="-12.5" width="306" height="42" rx="21" fill="white"/>
<rect x="-15.5" y="-12.5" width="306" height="42" rx="21" stroke="#DDE7DD"/>
<g id="Search">
<g id="search">
<path id="Vector" d="M7.33333 13.1667C10.2789 13.1667 12.6667 10.7789 12.6667 7.83333C12.6667 4.88781 10.2789 2.5 7.33333 2.5C4.38781 2.5 2 4.88781 2 7.83333C2 10.7789 4.38781 13.1667 7.33333 13.1667Z" stroke="#2D432C" stroke-width="1.5" stroke-linecap="round" stroke-linejoin="round"/>
<path id="Vector_2" d="M13.9996 14.5L11.0996 11.6" stroke="#2D432C" stroke-width="1.5" stroke-linecap="round" stroke-linejoin="round"/>
</g>
</g>
</g>
</g>
</g>
</g>
</g>
</svg>
